<svg xmlns="http://www.w3.org/2000/svg" viewBox="0 0 512.189 512.189" width="512" height="512"><path d="M256.157 438.16c-81.738 0-148.237-66.499-148.237-148.238 0-21.983 4.702-43.148 13.976-62.908l27.158 12.746c-7.388 15.741-11.134 32.618-11.134 50.162 0 65.197 53.041 118.238 118.237 118.238v30z" fill="#c5c9f7"/><path d="M336.528 414.5l-16.285-25.195c33.908-21.916 54.152-59.068 54.152-99.383 0-27.402-9.587-54.11-26.994-75.203l23.139-19.096c21.832 26.455 33.855 59.944 33.855 94.299 0 50.54-25.371 97.111-67.867 124.578z" fill="#a7aff2"/><path d="M167.963 211.167l-22.369-19.99c28.108-31.453 68.406-49.492 110.562-49.492 22.509 0 44.135 4.921 64.275 14.626l-13.021 27.025c-16.047-7.731-33.291-11.651-51.254-11.651-33.624 0-65.769 14.39-88.193 39.482z" fill="#c5c9f7"/><path d="M86.885 237.212l-28.646-8.91c12.849-41.311 39.099-78.4 73.916-104.438 36.021-26.939 78.901-41.179 124.002-41.179 27.268 0 53.776 5.218 78.791 15.508l-11.414 27.744c-21.375-8.793-44.044-13.252-67.377-13.252-78.08 0-146.106 50.044-169.272 124.527zm211.724 255.593a208.266 208.266 0 0 1-42.41 4.36h-.04c-50.58 0-99.29-18.43-137.16-51.88-37.53-33.16-61.78-78.63-68.29-128.05l29.74-3.92c11.56 87.71 87.09 153.85 175.71 153.85h.04c12.23 0 24.43-1.26 36.29-3.73l6.12 29.37z" fill="#c5c9f7"/><path d="M382.702 454.05l-18.334-23.746c43.868-33.868 69.027-85.036 69.027-140.382 0-50.681-21.771-99.045-59.732-132.689l19.898-22.451c44.381 39.335 69.834 95.882 69.834 155.141 0 32.664-7.386 63.927-21.952 92.919-13.883 27.634-34.195 52.257-58.741 71.208z" fill="#a7aff2"/><path d="M256.192 366.557c-42.256 0-76.634-34.378-76.634-76.635 0-42.256 34.378-76.634 76.634-76.634s76.634 34.378 76.634 76.634c0 42.257-34.378 76.635-76.634 76.635zm0-123.269c-25.714 0-46.634 20.92-46.634 46.634 0 25.715 20.92 46.635 46.634 46.635s46.634-20.92 46.634-46.635c0-25.714-20.92-46.634-46.634-46.634z"/><path d="M292.489 463.435l6.12 29.37a208.266 208.266 0 0 1-42.41 4.36v-30c12.23 0 24.43-1.26 36.29-3.73z" fill="#a7aff2"/><path d="M357.979 62.855l-51.95 181.24-14.42-4.13h-70.84l-14.42 4.13-51.94-181.24 5.56-6.17c23.82-26.47 58.89-41.66 96.22-41.66h.01c37.33 0 72.4 15.19 96.22 41.66l5.56 6.17zm154.21 298.43c0 22.72-6.12 45.66-18.06 66.3-18.69 32.31-49.4 55.07-84.24 62.43l-8.13 1.72-130.86-135.72 10.8-10.41 35.47-61.32 3.65-14.55 182.89 45.79 2.56 7.91c3.97 12.24 5.92 25.01 5.92 37.85zm-316.963-77.168l-3.605-14.562-183.01 45.303-2.585 7.899C-5.046 356.606-.726 394.579 17.88 426.941c18.605 32.361 49.249 55.2 84.073 62.659l8.127 1.741 131.227-135.369-10.771-10.441-35.31-61.414z" fill="#ffaa20"/><path d="M291.609 239.965h-35.41V15.025c37.33 0 72.4 15.19 96.22 41.66l5.56 6.17-51.95 181.24-14.42-4.13zm220.58 121.32c0 22.72-6.12 45.66-18.06 66.3-18.69 32.31-49.4 55.07-84.24 62.43l-8.13 1.72-130.86-135.72 10.8-10.41 35.47-61.32 3.65-14.55 182.89 45.79 2.56 7.91c3.97 12.24 5.92 25.01 5.92 37.85z" fill="#ff8900"/><path d="M332.829 289.925c0 42.25-34.37 76.62-76.63 76.63h-.01c-42.25 0-76.63-34.38-76.63-76.63 0-42.26 34.38-76.64 76.63-76.64h.01c42.26.01 76.63 34.38 76.63 76.64z" fill="#97a1f0"/><path d="M332.829 289.925c0 42.25-34.37 76.62-76.63 76.63v-153.27c42.26.01 76.63 34.38 76.63 76.64z" fill="#7985eb"/></svg>